<?xml version="1.0" encoding="iso-8859-1"?>
<!-- Generator: Adobe Illustrator 16.0.4, SVG Export Plug-In . SVG Version: 6.00 Build 0)  -->
<!DOCTYPE svg PUBLIC "-//W3C//DTD SVG 1.1//EN" "http://www.w3.org/Graphics/SVG/1.1/DTD/svg11.dtd">
<svg version="1.1" xmlns="http://www.w3.org/2000/svg" xmlns:xlink="http://www.w3.org/1999/xlink" x="0px" y="0px" width="895px"
	 height="318px" viewBox="0 0 895 318" style="enable-background:new 0 0 895 318;" xml:space="preserve">
<g id="Layer">
	<polygon style="fill:#FFFFFF;" points="0,318 895,318 895,0 0,0 0,0 	"/>
</g>
<g id="SIEMENS">
	<g>
		<path style="fill-rule:evenodd;clip-rule:evenodd;fill:#009999;" d="M107.322,210.31v-20.634
			c11.744,3.696,22.136,5.545,31.176,5.545c12.481,0,18.723-3.299,18.723-9.893c0-2.458-0.908-4.523-2.729-6.196
			c-1.862-1.774-6.63-4.234-14.294-7.385c-13.75-5.653-22.715-10.475-26.886-14.462c-5.405-5.264-8.108-11.903-8.108-19.925
			c0-10.33,3.938-18.204,11.808-23.614c7.783-5.364,17.918-8.042,30.42-8.042c6.888,0,16.858,1.268,29.9,3.807v19.849
			c-9.703-3.876-18.71-5.81-27.032-5.81c-11.718,0-17.577,3.218-17.577,9.667c0,2.411,1.18,4.377,3.543,5.901
			c1.965,1.233,7.381,3.839,16.235,7.825c12.749,5.662,21.235,10.583,25.464,14.77c5.018,4.966,7.531,11.391,7.531,19.267
			c0,11.32-4.923,19.956-14.764,25.905c-7.972,4.825-18.311,7.228-31.008,7.228C129.003,214.111,118.2,212.849,107.322,210.31
			L107.322,210.31z"/>
		<polygon style="fill-rule:evenodd;clip-rule:evenodd;fill:#009999;" points="201.979,107.519 201.979,107.519 231.163,107.519 
			231.163,212 201.979,212 		"/>
		<polygon style="fill-rule:evenodd;clip-rule:evenodd;fill:#009999;" points="257.928,212 257.928,107.519 332.777,107.519 
			332.777,126.417 286.055,126.417 286.055,150.009 326.725,150.009 326.725,167.246 286.055,167.246 286.055,192.041 
			333.981,192.041 333.981,212 257.928,212 		"/>
		<polygon style="fill-rule:evenodd;clip-rule:evenodd;fill:#009999;" points="353.033,212 353.033,107.519 390.872,107.519 
			417.16,174.278 444.107,107.519 480.048,107.519 480.048,212 452.377,212 452.377,138.025 421.737,213.061 403.646,213.061 
			373.595,138.025 373.595,212 353.033,212 		"/>
		<polygon style="fill-rule:evenodd;clip-rule:evenodd;fill:#009999;" points="506.818,212 506.818,107.519 581.667,107.519 
			581.667,126.417 534.948,126.417 534.948,150.009 575.617,150.009 575.617,167.246 534.948,167.246 534.948,192.041 
			582.879,192.041 582.879,212 506.818,212 		"/>
		<polygon style="fill-rule:evenodd;clip-rule:evenodd;fill:#009999;" points="602.082,212 602.082,107.519 635.906,107.519 
			671.791,177.461 671.791,107.519 692.348,107.519 692.348,212 659.484,212 622.646,141.117 622.646,212 602.082,212 		"/>
		<path style="fill-rule:evenodd;clip-rule:evenodd;fill:#009999;" d="M713.066,210.31v-20.634
			c11.645,3.696,22.035,5.545,31.182,5.545c12.481,0,18.717-3.299,18.717-9.893c0-2.458-0.885-4.523-2.646-6.196
			c-1.871-1.774-6.659-4.234-14.369-7.385c-13.708-5.606-22.683-10.426-26.893-14.462c-5.402-5.217-8.1-11.88-8.1-19.995
			c0-10.286,3.928-18.133,11.807-23.544c7.771-5.364,17.918-8.042,30.423-8.042c7.028,0,16.138,1.116,27.31,3.359l2.581,0.448
			v19.849c-9.705-3.876-18.738-5.81-27.104-5.81c-11.675,0-17.497,3.218-17.497,9.667c0,2.411,1.175,4.377,3.531,5.901
			c1.874,1.187,7.311,3.793,16.312,7.825c12.653,5.662,21.122,10.583,25.387,14.77c5.026,4.966,7.534,11.391,7.534,19.267
			c0,11.32-4.896,19.956-14.687,25.905c-8.02,4.825-18.383,7.228-31.078,7.228C734.743,214.111,723.936,212.849,713.066,210.31
			L713.066,210.31z"/>
	</g>
</g>
</svg>
